# xmcd
#
# Track frame offsets:
#	151
#	14375
#	32104
#	51985
#	67477
#	84758
#	106549
#	120070
#	140186
#	162140
#	182018
#	194695
#	205462
#	223928
#	236990
#	247726
#
# Disc length: 3606 seconds
#
# Revision: 0
# Processed by: cddbd v1.4PL0 Copyright (c) Steve Scherf et al.
# Submitted via: EasyCDDAExtractor 4.6.9.1
#
DISCID=e70e1410
DTITLE=Acker Bilk - At His Best
DYEAR=1998
DGENRE=Blues
TTITLE0=Stranger On The Shore  (Bilk)
TTITLE1=Aria  (Baldan/Bardotti)
TTITLE2=Yesterday  (Lennon/McCartney)
TTITLE3=Lay Lady Lay  (Dylan)
TTITLE4=A Whiter Shade Of Pale  (Brooker)
TTITLE5=You´Ve Got A Friend  (King)
TTITLE6=Lonely  (Norrie/Bilk)
TTITLE7=Nights In White Satin  Haywood)
TTITLE8=Bridge Over Troubled Water  (Simon)
TTITLE9=A Rainy Night In Georgia  White)
TTITLE10=A Taste Of Honey  (Scott)
TTITLE11=White Cliffs Of Dover  (Kent/Burton)
TTITLE12=Buona Sera  (De Rose/Sigman)
TTITLE13=Summer Set  (Bilk/Collet)
TTITLE14=That´S My Home  (Rene/Ellison)
TTITLE15=(Everything I Do) I Do It For You  (Adams/lange/Kamen)
EXTD=
EXTT0=
EXTT1=
EXTT2=
EXTT3=
EXTT4=
EXTT5=
EXTT6=
EXTT7=
EXTT8=
EXTT9=
EXTT10=
EXTT11=
EXTT12=
EXTT13=
EXTT14=
EXTT15=
PLAYORDER=
